<?xml version="1.0" standalone="no"?>
<!DOCTYPE svg PUBLIC "-//W3C//DTD SVG 20010904//EN"
 "http://www.w3.org/TR/2001/REC-SVG-20010904/DTD/svg10.dtd">
<svg version="1.0" xmlns="http://www.w3.org/2000/svg"
 width="267.000000pt" height="87.000000pt" viewBox="0 0 267.000000 87.000000"
 preserveAspectRatio="xMidYMid meet">

<g transform="translate(0.000000,87.000000) scale(0.100000,-0.100000)"
fill="#000000" stroke="none">
<path d="M387 863 c-4 -3 -7 -147 -7 -318 l0 -312 -23 -21 c-42 -39 -87 -21
-102 41 l-7 27 -113 0 -113 0 5 -43 c8 -70 52 -146 106 -183 122 -84 329 -62
417 44 57 69 60 94 60 443 0 280 -2 318 -16 323 -21 8 -199 8 -207 -1z"/>
<path d="M1001 452 c-79 -229 -146 -423 -149 -429 -3 -10 24 -13 116 -13 l121
0 22 70 23 70 146 0 146 0 23 -70 22 -70 120 0 c65 0 119 4 119 8 0 4 -65 197
-145 427 -80 230 -145 420 -145 422 0 2 -62 3 -137 3 l-138 0 -144 -418z m365
-124 c5 -16 -4 -18 -85 -18 -50 0 -91 1 -91 3 0 2 18 57 40 122 22 66 38 126
35 133 -3 8 -2 19 2 25 5 9 49 -108 99 -265z"/>
<path d="M1850 865 c0 -3 65 -133 145 -288 l145 -284 0 -141 0 -142 115 0 115
0 0 137 0 136 145 284 c80 156 143 288 140 293 -9 15 -230 13 -243 -2 -5 -7
-42 -89 -81 -183 -72 -170 -95 -214 -89 -165 2 14 -26 93 -66 187 -53 124 -73
163 -90 167 -26 7 -236 8 -236 1z"/>
</g>
</svg>
